# xmcd
#
# Track frame offsets:
#	150
#	10673
#	20974
#	35669
#	49793
#	66031
#	84903
#	101500
#	114247
#	124724
#	138369
#	151472
#	165994
#	174794
#	186240
#
# Disc length: 2630 seconds
#
# Revision: 1
# Processed by: cddbd v1.5.2PL0 Copyright (c) Steve Scherf et al.
# Submitted via: audiograbber 1.83.01
#
DISCID=b50a440f
DTITLE=Against The Grain - Mountain Laurel
DYEAR=2001
DGENRE=Bluegrass
TTITLE0=Dark Hollow
TTITLE1=This Heart Of Mine
TTITLE2=I'm In Good Shape
TTITLE3=Pallet On Your Floor
TTITLE4=Stop In The Road
TTITLE5=By His Hand
TTITLE6=Fire On The Mountain
TTITLE7=Cowboys Dream
TTITLE8=Mountain Sky
TTITLE9=Friend Of The Devil
TTITLE10=Mountain Laurel
TTITLE11=Winding Road
TTITLE12=The Promised Land
TTITLE13=My Girl
TTITLE14=How Mountain Girls Can Love
EXTD=
EXTT0=
EXTT1=
EXTT2=
EXTT3=
EXTT4=
EXTT5=
EXTT6=
EXTT7=
EXTT8=
EXTT9=
EXTT10=
EXTT11=
EXTT12=
EXTT13=
EXTT14=
PLAYORDER=
